<svg width="180" height="180" viewBox="0 0 180 180" fill="none" xmlns="http://www.w3.org/2000/svg">
<g id="Image" clip-path="url(#clip0_206_1989)">
<g id="Group 2">
<path id="Vector" d="M108.412 168.015C149.579 158.109 174.921 116.706 165.015 75.5392C155.109 34.3723 113.706 9.03039 72.5392 18.9365C31.3723 28.8426 6.03048 70.2454 15.9366 111.412C25.8427 152.579 67.2455 177.921 108.412 168.015Z" fill="#A7A7A7" stroke="#263238" stroke-miterlimit="10"/>
<path id="Vector_2" d="M157.779 82.6111C168.02 54.9985 153.017 23.97 124.269 13.307C95.5201 2.64399 63.9122 16.3844 53.6706 43.997C43.4289 71.6097 58.4319 102.638 87.1805 113.301C115.929 123.964 147.537 110.224 157.779 82.6111Z" fill="#263238" stroke="#263238" stroke-miterlimit="10"/>
<path id="Vector_3" d="M157.42 53C159.661 61.8533 159.515 71.2372 157 80" stroke="white" stroke-width="0.75" stroke-linecap="round" stroke-linejoin="round"/>
<path id="Vector_4" d="M154 87C154 87 150.178 91.4973 148 94" stroke="white" stroke-width="0.75" stroke-linecap="round" stroke-linejoin="round"/>
<path id="Vector_5" d="M75 30C75 30 66.3867 38.9767 71.77 50" stroke="white" stroke-width="0.75" stroke-linecap="round" stroke-linejoin="round"/>
<path id="Vector_6" d="M89.1902 171.176C102.312 171.199 115.182 167.577 126.366 160.714C118.061 153.055 96.4418 133.983 86.2521 133.151C75.5869 132.285 44.4574 142.254 34.4885 145.566C41.1661 153.59 49.5292 160.044 58.9835 164.471C68.4378 168.897 78.751 171.186 89.1902 171.176Z" fill="white" stroke="#263238" stroke-miterlimit="10"/>
<path id="Vector_7" d="M99.7024 142.136C99.9911 141.287 100.246 140.437 100.518 139.741C95.0491 136.107 89.9033 133.457 86.252 133.152C81.819 133.106 77.3976 133.614 73.0903 134.663C71.2052 139.758 70.7128 144.853 69.1843 153.531C67.1124 165.266 70.2203 168.714 78.8475 164.23C87.4748 159.747 96.2549 152.478 99.7024 142.136Z" fill="white" stroke="#263238" stroke-miterlimit="10"/>
<path id="Vector_8" d="M79.0002 120.379C79.0002 120.379 81.0721 124.183 78.6605 133.15C76.249 142.117 70.1691 156.926 72.9883 159.746C75.8074 162.565 92.8072 149.726 93.4866 140.062C94.1659 130.399 94.1829 111.073 94.1829 111.073L79.0002 120.379Z" fill="white"/>
<g id="Clip path group">
<mask id="mask0_206_1989" style="mask-type:luminance" maskUnits="userSpaceOnUse" x="72" y="111" width="23" height="50">
<g id="clip-path-5--inject-1">
<path id="Vector_9" d="M79.0002 120.379C79.0002 120.379 81.0721 124.183 78.6605 133.15C76.249 142.117 70.1691 156.926 72.9883 159.746C75.8074 162.565 92.8072 149.726 93.4866 140.062C94.1659 130.399 94.1829 111.073 94.1829 111.073L79.0002 120.379Z" fill="white"/>
</g>
</mask>
<g mask="url(#mask0_206_1989)">
<g id="Group">
<g id="Vector_10" style="mix-blend-mode:multiply" opacity="0.5">
<path d="M79.7984 126.188L90.7014 134.679L89.8692 148.266C91.8017 145.907 93.0525 143.064 93.4866 140.046C94.1829 130.383 94.1829 111.056 94.1829 111.056L79.0002 120.363C79.7381 122.21 80.0122 124.21 79.7984 126.188Z" fill="#A7A7A7"/>
</g>
</g>
</g>
</g>
<path id="Vector_11" d="M79.0002 120.379C79.0002 120.379 81.0721 124.183 78.6605 133.15C76.249 142.117 70.1691 156.926 72.9883 159.746C75.8074 162.565 92.8072 149.726 93.4866 140.062C94.1659 130.399 94.1829 111.073 94.1829 111.073L79.0002 120.379Z" stroke="#263238" stroke-miterlimit="10"/>
<path id="Vector_12" d="M63 74.4448C63 74.4448 60.4824 68.0415 57.2379 72.6953C53.9935 77.349 57.9471 83 59.7555 83C61.5639 83 63 74.4448 63 74.4448Z" fill="white" stroke="#263238" stroke-miterlimit="10"/>
<path id="Vector_13" d="M71.6716 53C71.6716 53 60.9693 73.8569 58.3891 88.1398C55.8089 102.423 66.5112 124 77.2135 124C87.9158 124 104.469 107.538 104.469 107.538C104.469 107.538 119.968 107.898 122.185 102.783C124.402 97.6677 121.822 93.6332 117.751 93.6332H109.629C109.629 93.6332 107.413 94.7319 108.521 84.4835C109.629 74.2352 112.955 69.4802 112.955 69.4802C112.955 69.4802 84.9359 71.6596 71.6716 53Z" fill="white"/>
<g id="Clip path group_2">
<mask id="mask1_206_1989" style="mask-type:luminance" maskUnits="userSpaceOnUse" x="58" y="52" width="66" height="73">
<g id="clip-path-6--inject-1">
<path id="Vector_14" d="M72.0143 52.8647C72.0143 52.8647 61.3348 73.8612 58.7601 88.2397C56.1854 102.618 66.8649 124.34 77.5445 124.34C88.2241 124.34 104.742 107.768 104.742 107.768C104.742 107.768 120.208 108.13 122.42 102.981C124.633 97.8314 122.058 93.7699 117.996 93.7699H109.891C109.891 93.7699 107.679 94.8759 108.785 84.559C109.891 74.242 113.21 69.4552 113.21 69.4552C113.21 69.4552 85.2505 71.6492 72.0143 52.8647Z" fill="white"/>
</g>
</mask>
<g mask="url(#mask1_206_1989)">
<g id="Group_2">
<g id="Vector_15" style="mix-blend-mode:multiply" opacity="0.5">
<path d="M100.336 101.114C98.095 106.814 94.4089 111.832 89.6402 115.676C84.8715 119.52 79.1844 122.056 73.1383 123.035H73.0295C74.4235 123.849 76.0029 124.292 77.6169 124.322C88.2964 124.322 104.814 107.75 104.814 107.75C104.814 107.75 120.281 108.112 122.493 102.963C124.705 97.8136 122.13 93.7521 118.069 93.7521H109.964C109.964 93.7521 107.752 94.8581 108.858 84.5412C109.964 74.2242 113.282 69.4375 113.282 69.4375C113.282 69.4375 111.469 69.5644 108.477 69.4375H108.35" fill="#A7A7A7"/>
</g>
</g>
</g>
</g>
<path id="Vector_16" d="M71.6716 53C71.6716 53 60.9693 73.8569 58.3891 88.1398C55.8089 102.423 66.5112 124 77.2135 124C87.9158 124 104.469 107.538 104.469 107.538C104.469 107.538 119.968 107.898 122.185 102.783C124.402 97.6677 121.822 93.6332 117.751 93.6332H109.629C109.629 93.6332 107.413 94.7319 108.521 84.4835C109.629 74.2352 112.955 69.4802 112.955 69.4802C112.955 69.4802 84.9359 71.6596 71.6716 53Z" stroke="#263238" stroke-miterlimit="10"/>
<path id="Vector_17" d="M73.771 76.7811C73.3187 78.7027 72.3764 80.1349 71.6791 79.9899C70.9818 79.8449 70.7933 78.177 71.2456 76.2191C71.6979 74.2612 72.6402 72.8653 73.3375 73.0103C74.0349 73.1554 74.1856 74.8413 73.771 76.7811Z" fill="#263238"/>
<path id="Vector_18" d="M91.7557 83.7725C91.3059 85.6978 90.3688 87.1509 89.6753 86.9874C88.9819 86.824 88.7944 85.1711 89.2442 83.2276C89.6941 81.2841 90.6312 79.8492 91.3247 80.0127C92.0182 80.1762 92.2056 81.8472 91.7557 83.7725Z" fill="#263238"/>
<path id="Vector_19" d="M76.8663 81C76.8663 81 69.031 86.8209 70.1003 88.2716C73.0245 90.8413 76.6184 92.4844 80.4421 93C83.6499 93 82.9312 89.006 82.9312 89.006" stroke="#263238" stroke-linecap="round" stroke-linejoin="round"/>
<path id="Vector_20" d="M71 98.2948C74.9649 100.488 79.5018 101.381 83.9871 100.851C85.8379 100.667 87.6194 100.041 89.1859 99.0239C90.7524 98.0069 92.0594 96.628 93 95" stroke="#263238" stroke-linecap="round" stroke-linejoin="round"/>
<path id="Vector_21" d="M72 67.4424C72 67.4424 74 63.8522 78 68" stroke="#263238" stroke-linecap="round" stroke-linejoin="round"/>
<path id="Vector_22" d="M90 74.2854C90 74.2854 98 72.2601 98 79" stroke="#263238" stroke-linecap="round" stroke-linejoin="round"/>
</g>
</g>
<defs>
<clipPath id="clip0_206_1989">
<rect width="180" height="180" fill="white"/>
</clipPath>
</defs>
</svg>
