<svg width="181" height="180" viewBox="0 0 181 180" fill="none" xmlns="http://www.w3.org/2000/svg">
<g id="Image" clip-path="url(#clip0_206_1928)">
<g id="character-1--inject-1">
<path id="Vector" d="M103.212 169.288C145.897 162.268 174.809 121.973 167.788 79.2883C160.768 36.6033 120.473 7.69145 77.7882 14.712C35.1031 21.7325 6.19128 62.0269 13.2118 104.712C20.2324 147.397 60.5267 176.309 103.212 169.288Z" fill="#A7A7A7" stroke="#263238" stroke-miterlimit="10"/>
<path id="Vector_2" opacity="0.3" d="M103.212 169.288C145.897 162.268 174.809 121.973 167.788 79.2883C160.768 36.6033 120.473 7.69145 77.7882 14.712C35.1031 21.7325 6.19128 62.0269 13.2118 104.712C20.2324 147.397 60.5267 176.309 103.212 169.288Z" fill="white" stroke="#263238" stroke-miterlimit="10"/>
<path id="Vector_3" d="M36.6039 131.726C35.259 137.088 29.1318 136.34 30.9998 142.935C43.516 157.586 60.9961 167.107 80.0939 169.675C99.1918 172.243 118.566 167.677 134.507 156.851C140.112 150.22 143.474 143.252 143.623 137.648C144.128 120.537 126.045 107.76 125.074 99.5216C124.103 91.2836 131.911 72.6593 131.911 72.6593C131.911 72.6593 145.585 70.6978 150.479 58.4996C155.373 46.3013 136.768 18.86 120.142 10.5472C103.517 2.23449 75.6831 9.57587 62.0092 29.6012C48.3352 49.6265 64.942 67.2233 56.1435 76.5074C47.3451 85.7915 24.387 86.2772 21.9399 104.845C19.4928 123.414 38.061 125.861 36.6039 131.726Z" fill="#263238" stroke="#263238" stroke-miterlimit="10"/>
<path id="Vector_4" d="M120.198 29.1714C120.198 29.1714 125.149 41.2949 105.871 48.4495C86.5925 55.604 71.7229 51.7559 66.754 64.4212C61.785 77.0864 65.6518 85.9222 66.2122 92.4416C66.7726 98.9611 51.268 97.9336 41.9278 106.209C32.5876 114.484 51.268 124.385 56.2556 129.896C61.2432 135.406 60.1038 143.663 51.2867 146.428" stroke="white" stroke-width="0.75" stroke-linecap="round" stroke-linejoin="round"/>
<path id="Vector_5" d="M61.8036 54.5205C61.8036 54.5205 68.9582 36.8863 79.9796 34.1216C91.0009 31.3569 103.124 39.6323 111.381 31.9173C119.638 24.2023 117.994 18.7103 111.923 14.3018" stroke="white" stroke-width="0.75" stroke-linecap="round" stroke-linejoin="round"/>
<path id="Vector_6" d="M128.455 36.3262C128.455 36.3262 147.752 49.0101 141.139 58.9294C134.526 68.8486 132.322 56.7251 132.322 56.7251" stroke="white" stroke-width="0.75" stroke-linecap="round" stroke-linejoin="round"/>
<path id="Vector_7" d="M48.0176 157.785C62.6497 167.242 80.0185 171.546 97.3732 170.017C114.728 168.487 131.076 161.211 143.829 149.342C138.062 144.044 131.946 139.138 125.522 134.659C113.305 126.346 103.535 123.451 96.6985 123.899C96.6985 123.899 91.3185 126.346 81.063 136.116C74.3755 142.486 58.3104 151.957 48.0176 157.785Z" fill="white" stroke="#263238" stroke-miterlimit="10"/>
<path id="Vector_8" d="M114.762 137.33C114.768 134.08 114.302 130.846 113.38 127.729C108.207 125.143 102.48 123.86 96.6985 123.993C96.6985 123.993 92.4207 125.861 84.2574 133.333C84.0848 134.715 83.9974 136.106 83.9958 137.499C83.9958 150.332 90.8702 160.718 99.3697 160.718C107.869 160.718 114.762 150.164 114.762 137.33Z" fill="white" stroke="#263238" stroke-miterlimit="10"/>
<path id="Vector_9" d="M92.7755 98.9795C92.7755 98.9795 92.7755 112.672 91.3184 125.375C89.8614 138.077 91.8041 151.751 101.088 152.723C110.372 153.694 108.897 131.726 107.925 122.928C107.349 117.407 107.349 111.841 107.925 106.321L92.7755 98.9795Z" fill="white"/>
<g id="Clip path group">
<mask id="mask0_206_1928" style="mask-type:luminance" maskUnits="userSpaceOnUse" x="90" y="98" width="19" height="55">
<g id="clip-path-7--inject-1">
<path id="Vector_10" d="M92.7755 98.9795C92.7755 98.9795 92.7755 112.672 91.3184 125.375C89.8614 138.077 91.8041 151.751 101.088 152.723C110.372 153.694 108.897 131.726 107.925 122.928C107.349 117.407 107.349 111.841 107.925 106.321L92.7755 98.9795Z" fill="white"/>
</g>
</mask>
<g mask="url(#mask0_206_1928)">
<g id="Group">
<g id="Vector_11" style="mix-blend-mode:multiply" opacity="0.5">
<path d="M91.0385 128.326L107.533 112.336C107.533 111.832 107.533 111.346 107.533 110.898L104.171 104.64L92.7197 99.0356C92.7197 99.0356 92.7197 112.728 91.2626 125.431C91.2066 126.346 91.1132 127.336 91.0385 128.326Z" fill="#A7A7A7"/>
</g>
</g>
</g>
</g>
<path id="Vector_12" d="M92.7755 98.9795C92.7755 98.9795 92.7755 112.672 91.3184 125.375C89.8614 138.077 91.8041 151.751 101.088 152.723C110.372 153.694 108.897 131.726 107.925 122.928C107.349 117.407 107.349 111.841 107.925 106.321L92.7755 98.9795Z" stroke="#263238" stroke-miterlimit="10"/>
<path id="Vector_13" d="M126.008 37.9141C126.008 37.9141 126.979 44.2654 110.372 52.0924C93.7656 59.9195 85.4529 66.2521 83.9958 73.5748C82.5388 80.8975 82.0344 83.849 82.0344 83.849C82.0344 83.849 78.6159 76.9933 72.2646 80.4118C65.9133 83.8303 71.7789 97.0372 77.6446 97.5229C83.5102 98.0086 84.9672 96.0472 84.9672 96.0472C84.9672 96.0472 104.021 115.101 115.248 115.101C126.475 115.101 130.883 104.36 133.331 85.2126C135.703 66.8312 126.008 37.9141 126.008 37.9141Z" fill="white"/>
<g id="Clip path group_2">
<mask id="mask1_206_1928" style="mask-type:luminance" maskUnits="userSpaceOnUse" x="69" y="37" width="65" height="79">
<g id="clip-path-8--inject-1">
<path id="Vector_14" d="M126.008 37.9141C126.008 37.9141 126.979 44.2654 110.372 52.0924C93.7656 59.9195 85.4529 66.2521 83.9958 73.5748C82.5388 80.8975 82.0344 83.849 82.0344 83.849C82.0344 83.849 78.6159 76.9933 72.2646 80.4118C65.9133 83.8303 71.7789 97.0372 77.6446 97.5229C83.5102 98.0086 84.9672 96.0472 84.9672 96.0472C84.9672 96.0472 104.021 115.101 115.248 115.101C126.475 115.101 130.883 104.36 133.331 85.2126C135.703 66.8312 126.008 37.9141 126.008 37.9141Z" fill="white"/>
</g>
</mask>
<g mask="url(#mask1_206_1928)">
<g id="Group_2">
<g id="Vector_15" style="mix-blend-mode:multiply" opacity="0.5">
<path d="M89.3384 77.1052C89.9309 70.9518 92.1202 65.0599 95.6897 60.0127C88.722 64.5707 84.9299 68.8672 83.9958 73.5746C82.5201 80.916 82.0344 83.8488 82.0344 83.8488C82.0344 83.8488 78.6159 76.9931 72.2646 80.4116C65.9133 83.8301 71.7789 97.0371 77.6446 97.5228C83.5102 98.0084 84.9672 96.047 84.9672 96.047C84.9672 96.047 104.021 115.101 115.248 115.101C111.915 113.444 108.781 111.414 105.908 109.049C99.2577 104.192 88.7967 89.2474 89.3384 77.1052Z" fill="#A7A7A7"/>
</g>
</g>
</g>
</g>
<path id="Vector_16" d="M126.008 37.9141C126.008 37.9141 126.979 44.2654 110.372 52.0924C93.7656 59.9195 85.4529 66.2521 83.9958 73.5748C82.5388 80.8975 82.0344 83.849 82.0344 83.849C82.0344 83.849 78.6159 76.9933 72.2646 80.4118C65.9133 83.8303 71.7789 97.0372 77.6446 97.5229C83.5102 98.0086 84.9672 96.0472 84.9672 96.0472C84.9672 96.0472 104.021 115.101 115.248 115.101C126.475 115.101 130.883 104.36 133.331 85.2126C135.703 66.8312 126.008 37.9141 126.008 37.9141Z" stroke="#263238" stroke-miterlimit="10"/>
<path id="Vector_17" d="M122.627 67.5596C122.072 69.074 121.842 70.6881 121.952 72.2971C122.061 73.9062 122.507 75.4743 123.262 76.8997C125.821 81.7006 127.11 83.2884 126.157 84.5773C125.884 85.0204 125.526 85.4053 125.104 85.7099C124.682 86.0146 124.204 86.233 123.697 86.3527C123.191 86.4724 122.665 86.4911 122.152 86.4076C121.638 86.3242 121.145 86.1402 120.703 85.8663" stroke="#263238" stroke-linecap="round" stroke-linejoin="round"/>
<path id="Vector_18" d="M120.703 97.3551C120.703 97.3551 111.363 100.886 108.206 94.1421" stroke="#263238" stroke-linecap="round" stroke-linejoin="round"/>
<path id="Vector_19" d="M111.419 74.7698C111.419 76.8059 110.84 78.5058 110.13 78.5058C109.42 78.5058 108.859 76.8619 108.859 74.7698C108.859 72.6776 109.42 71.0337 110.13 71.0337C110.84 71.0337 111.419 72.7336 111.419 74.7698Z" fill="#263238"/>
<path id="Vector_20" d="M127.11 74.2839C127.822 74.2839 128.399 72.6363 128.399 70.6039C128.399 68.5714 127.822 66.9238 127.11 66.9238C126.398 66.9238 125.821 68.5714 125.821 70.6039C125.821 72.6363 126.398 74.2839 127.11 74.2839Z" fill="#263238"/>
<path id="Vector_21" d="M102.134 64.0477C102.134 64.0477 104.002 58.9106 111.736 59.882" stroke="#263238" stroke-linecap="round" stroke-linejoin="round"/>
<path id="Vector_22" d="M122.944 58.9106C122.944 58.9106 125.186 53.4747 129.987 57.9579" stroke="#263238" stroke-linecap="round" stroke-linejoin="round"/>
</g>
</g>
<defs>
<clipPath id="clip0_206_1928">
<rect width="180" height="180" fill="white" transform="translate(0.5)"/>
</clipPath>
</defs>
</svg>
