<svg width="32" height="32" viewBox="0 0 32 32" fill="none" xmlns="http://www.w3.org/2000/svg">
<path d="M24.656 3.10623L28.8947 7.34623C29.4569 7.90879 29.7727 8.67157 29.7727 9.4669C29.7727 10.2622 29.4569 11.025 28.8947 11.5876L25.4493 15.0329C26.1591 15.1404 26.8068 15.4989 27.2748 16.0432C27.7428 16.5876 28.0001 17.2817 28 17.9996V24.9996C28 25.7952 27.6839 26.5583 27.1213 27.1209C26.5587 27.6835 25.7956 27.9996 25 27.9996H7C6.20435 27.9996 5.44129 27.6835 4.87868 27.1209C4.31607 26.5583 4 25.7952 4 24.9996V6.99957C4 6.20392 4.31607 5.44085 4.87868 4.87825C5.44129 4.31564 6.20435 3.99957 7 3.99957H14C14.7183 3.99954 15.4127 4.25722 15.9571 4.72577C16.5015 5.19432 16.8597 5.84264 16.9667 6.5529L20.4133 3.10623C20.6919 2.82765 21.0226 2.60667 21.3866 2.4559C21.7506 2.30514 22.1407 2.22754 22.5347 2.22754C22.9286 2.22754 23.3187 2.30514 23.6827 2.4559C24.0467 2.60667 24.3774 2.82765 24.656 3.10623ZM6 24.9996C6 25.5516 6.448 25.9996 7 25.9996H14.9987L15 16.9996H6V24.9996ZM16.9987 25.9996H25C25.2652 25.9996 25.5196 25.8942 25.7071 25.7067C25.8946 25.5191 26 25.2648 26 24.9996V17.9996C26 17.7344 25.8946 17.48 25.7071 17.2925C25.5196 17.1049 25.2652 16.9996 25 16.9996H16.9987V25.9996ZM14 5.99957H7C6.73478 5.99957 6.48043 6.10492 6.29289 6.29246C6.10536 6.48 6 6.73435 6 6.99957V14.9996H15V6.99957C15 6.73435 14.8946 6.48 14.7071 6.29246C14.5196 6.10492 14.2652 5.99957 14 5.99957ZM17 12.4129V14.9996H19.5867L17 12.4129ZM21.8267 4.5209L17.5907 8.75957C17.4034 8.94707 17.2982 9.20123 17.2982 9.46623C17.2982 9.73123 17.4034 9.9854 17.5907 10.1729L21.8293 14.4129C22.0168 14.6002 22.271 14.7054 22.536 14.7054C22.801 14.7054 23.0552 14.6002 23.2427 14.4129L27.4827 10.1729C27.6699 9.9854 27.7751 9.73123 27.7751 9.46623C27.7751 9.20123 27.6699 8.94707 27.4827 8.75957L23.24 4.51957C23.0525 4.3323 22.7983 4.22711 22.5333 4.22711C22.2683 4.22711 22.0142 4.3323 21.8267 4.51957V4.5209Z" fill="#A7A7A7"/>
</svg>
