<svg width="24" height="24" viewBox="0 0 24 24" fill="none" xmlns="http://www.w3.org/2000/svg">
<g id="vuesax/outline/document-text">
<g id="document-text">
<path id="Vector" d="M9 22.75H15C20.43 22.75 22.75 20.43 22.75 15V9C22.75 3.57 20.43 1.25 15 1.25H10C9.59 1.25 9.25 1.59 9.25 2C9.25 2.41 9.59 2.75 10 2.75H15C19.61 2.75 21.25 4.39 21.25 9V15C21.25 19.61 19.61 21.25 15 21.25H9C4.39 21.25 2.75 19.61 2.75 15V10C2.75 9.59 2.41 9.25 2 9.25C1.59 9.25 1.25 9.59 1.25 10V15C1.25 20.43 3.57 22.75 9 22.75Z" fill="#F0F0F0"/>
<path id="Vector_2" d="M2 10.75H6C9.42 10.75 10.75 9.41999 10.75 5.99999V1.99999C10.75 1.69999 10.57 1.41999 10.29 1.30999C10.01 1.18999 9.69 1.25999 9.47 1.46999L1.47 9.46999C1.26 9.67999 1.19 10.01 1.31 10.29C1.43 10.57 1.7 10.75 2 10.75ZM9.25 3.80999V5.99999C9.25 8.57999 8.58 9.24999 6 9.24999H3.81L9.25 3.80999Z" fill="#F0F0F0"/>
<path id="Vector_3" d="M16.75 13.75H10.75C10.34 13.75 10 13.41 10 13C10 12.59 10.34 12.25 10.75 12.25H16.75C17.16 12.25 17.5 12.59 17.5 13C17.5 13.41 17.16 13.75 16.75 13.75Z" fill="#F0F0F0"/>
<path id="Vector_4" d="M16.75 17.75H12.75C12.34 17.75 12 17.41 12 17C12 16.59 12.34 16.25 12.75 16.25H16.75C17.16 16.25 17.5 16.59 17.5 17C17.5 17.41 17.16 17.75 16.75 17.75Z" fill="#F0F0F0"/>
</g>
</g>
</svg>
