<svg width="24" height="24" viewBox="0 0 24 24" fill="none" xmlns="http://www.w3.org/2000/svg">
<g id="vuesax/outline/home-2">
<g id="home-2">
<path id="Vector" d="M17.79 22.75H6.21C3.47 22.75 1.25 20.52 1.25 17.78V10.37C1.25 9.00997 2.09 7.29997 3.17 6.45997L8.56 2.25997C10.18 0.999974 12.77 0.939974 14.45 2.11997L20.63 6.44997C21.82 7.27997 22.75 9.05997 22.75 10.51V17.79C22.75 20.52 20.53 22.75 17.79 22.75ZM9.48 3.43997L4.09 7.63997C3.38 8.19997 2.75 9.46997 2.75 10.37V17.78C2.75 19.69 4.3 21.25 6.21 21.25H17.79C19.7 21.25 21.25 19.7 21.25 17.79V10.51C21.25 9.54997 20.56 8.21997 19.77 7.67997L13.59 3.34997C12.45 2.54997 10.57 2.58997 9.48 3.43997Z" fill="#8AF2BA"/>
<path id="Subtract" fill-rule="evenodd" clip-rule="evenodd" d="M10.1973 13.1445C8.81655 13.1445 7.69727 14.2638 7.69727 15.6445V21.2523H9.19922V16.1445C9.19922 15.3161 9.87079 14.6445 10.6992 14.6445H13.3008C14.1292 14.6445 14.8008 15.3161 14.8008 16.1445V21.2523H16.3028V15.6445C16.3028 14.2638 15.1836 13.1445 13.8028 13.1445H10.1973Z" fill="#8AF2BA"/>
</g>
</g>
</svg>
