<svg width="24" height="24" viewBox="0 0 24 24" fill="none" xmlns="http://www.w3.org/2000/svg">
<g id="tasklist-24">
<path id="Union" fill-rule="evenodd" clip-rule="evenodd" d="M2 3.75C2 2.7835 2.7835 2 3.75 2H20.25C21.2165 2 22 2.7835 22 3.75V20.25C22 21.2165 21.2165 22 20.25 22H3.75C2.7835 22 2 21.2165 2 20.25V3.75ZM3.75 3.5C3.61193 3.5 3.5 3.61193 3.5 3.75V20.25C3.5 20.3881 3.61193 20.5 3.75 20.5H20.25C20.3881 20.5 20.5 20.3881 20.5 20.25V3.75C20.5 3.61193 20.3881 3.5 20.25 3.5H3.75ZM6.21637 9.812V18.5H8.91214V9.812H6.21637ZM6 7.06412C6 7.92795 6.69877 8.62825 7.56426 8.62825C8.42619 8.62825 9.12497 7.92439 9.12497 7.06412C9.12497 6.2003 8.42619 5.5 7.56426 5.5C6.69877 5.5 6 6.2003 6 7.06412ZM16.3078 18.5H19V13.733C19 11.3939 18.4963 9.59516 15.7686 9.59516C14.4598 9.59516 13.5801 10.3168 13.2218 10.9993H13.1864V9.812H10.6041V18.5H13.2928V14.2058C13.2928 13.0718 13.5056 11.9733 14.9067 11.9733C16.29 11.9733 16.3078 13.2709 16.3078 14.2769V18.5Z" fill="#F0F0F0"/>
</g>
</svg>
