<svg width="22" height="22" viewBox="0 0 22 22" fill="none" xmlns="http://www.w3.org/2000/svg">
<rect width="22" height="22" fill="#F5F5F5"/>
<rect width="1280" height="2626" transform="translate(-1173 -487)" fill="#262626"/>
<rect x="-5" y="-5" width="32" height="32" rx="16" fill="#F0F0F0"/>
<path d="M7.14004 4.95321C7.63541 4.94401 8.13007 4.9948 8.61324 5.10446C9.02004 5.19328 9.40628 5.35855 9.75141 5.59149C10.0702 5.82313 10.3224 6.13454 10.4827 6.49447C10.667 6.93706 10.7559 7.41353 10.7436 7.8928C10.7646 8.41904 10.6302 8.93981 10.3572 9.3902C10.07 9.81558 9.67304 10.1553 9.20841 10.3733C9.83895 10.5433 10.3881 10.9327 10.7572 11.4714C11.1116 12.0423 11.2897 12.7049 11.2692 13.3765C11.2809 13.9119 11.1702 14.4429 10.9455 14.9291C10.7379 15.3532 10.4338 15.7227 10.0577 16.0082C9.67046 16.2906 9.23469 16.4995 8.77205 16.6246C8.29228 16.7573 7.79664 16.824 7.29885 16.8227H1.83334V4.95321H7.14004ZM6.82468 9.75396C7.21389 9.77 7.59703 9.65349 7.91142 9.42347C8.06199 9.28943 8.17912 9.12203 8.25344 8.93465C8.32776 8.74726 8.35722 8.54509 8.33947 8.34429C8.34955 8.10976 8.30285 7.87626 8.20334 7.66365C8.11893 7.49437 7.98769 7.35289 7.82521 7.25603C7.66064 7.1494 7.47575 7.07807 7.28221 7.04654C7.07222 7.00586 6.85854 6.98736 6.64468 6.99133H4.30935V9.76455H6.82468V9.75396ZM6.9608 14.8073C7.19618 14.8105 7.43108 14.7851 7.66035 14.7317C7.86986 14.6854 8.06856 14.5994 8.24569 14.4783C8.41922 14.3573 8.55942 14.1945 8.65332 14.0049C8.76219 13.7632 8.81221 13.4991 8.79928 13.2343C8.82288 12.993 8.79092 12.7495 8.70584 12.5224C8.62077 12.2954 8.48483 12.0908 8.30846 11.9244C7.93464 11.6491 7.47653 11.5127 7.01298 11.5387H4.30935V14.8073H6.9608Z" fill="#262626"/>
<path d="M14.7957 14.7636C14.99 14.9437 15.219 15.0825 15.4686 15.1714C15.7182 15.2603 15.9833 15.2976 16.2477 15.2809C16.667 15.2915 17.078 15.1639 17.4177 14.9179C17.6939 14.7382 17.9032 14.4724 18.0128 14.1616H19.9874C19.777 15.0463 19.2633 15.8293 18.5354 16.3745C17.8372 16.8379 17.012 17.0726 16.1744 17.046C15.5765 17.0539 14.9832 16.9415 14.4297 16.7155C13.9289 16.5067 13.4798 16.191 13.1138 15.7906C12.7491 15.371 12.4689 14.8849 12.2887 14.359C12.0864 13.7712 11.9874 13.1527 11.996 12.5311C11.9923 11.9199 12.0947 11.3127 12.2985 10.7365C12.5724 9.92589 13.096 9.22285 13.7942 8.72829C14.4924 8.23373 15.3294 7.97307 16.1849 7.98372C16.8166 7.97052 17.4412 8.11835 18 8.41328C18.505 8.69022 18.9407 9.07808 19.2743 9.54767C19.6155 10.0404 19.8601 10.5935 19.995 11.1774C20.143 11.8045 20.1958 12.4503 20.1515 13.093H14.2701C14.2224 13.6969 14.4108 14.2958 14.7957 14.7636ZM17.3761 10.2495C17.2115 10.0849 17.0135 9.95743 16.7955 9.87576C16.5775 9.7941 16.3446 9.7601 16.1123 9.77606C15.8042 9.76431 15.4984 9.83258 15.2245 9.97421C15.0074 10.0937 14.8157 10.2546 14.6603 10.4476C14.5226 10.6286 14.42 10.8339 14.3578 11.0526C14.3018 11.2351 14.2668 11.4234 14.2534 11.6138H17.8964C17.8646 11.1174 17.6838 10.6422 17.3776 10.2502L17.3761 10.2495Z" fill="#262626"/>
<path d="M18.3486 5.74561H13.7838V6.91252H18.3486V5.74561Z" fill="#262626"/>
</svg>
