<svg width="46" height="46" viewBox="0 0 46 46" fill="none" xmlns="http://www.w3.org/2000/svg">
<g id="&#229;&#155;&#190;&#229;&#177;&#130;_5">
<g id="Group">
<g id="Group_2">
<path id="Vector" d="M34.9755 21.4197C33.2553 18.5936 30.5013 16.382 27.332 15.4117C21.663 13.6703 16.0278 16.0091 12.24 20.3096C11.7358 20.8816 11.2697 21.4917 10.8799 22.1485C9.8885 23.8093 9.38854 25.8516 9.92663 27.7116C10.2529 28.8259 11.0113 29.8809 12.1129 30.2537C13.6933 30.7918 15.3923 29.8004 16.5659 28.6098C18.1675 30.6097 20.7012 31.8214 23.2603 31.8172C25.8195 31.813 28.3532 30.5885 29.942 28.5844C30.8741 29.3809 32.0605 29.9148 33.285 29.8936C34.5094 29.8682 35.7424 29.2242 36.3102 28.1395C36.8821 27.0379 36.7084 25.6948 36.3525 24.5042C36.0263 23.4153 35.5602 22.3815 34.9755 21.4197ZM24.006 30.6605C21.9299 30.9147 20.214 30.508 18.9175 29.453C18.2692 28.9276 17.7862 28.2836 17.4176 27.6353C17.8201 27.7285 18.2141 27.7921 18.5827 27.7921C19.3835 27.7921 20.0953 27.5718 20.7139 27.1311C21.9342 26.2668 22.5485 24.7203 22.8578 23.3856C23.1883 24.6483 23.8196 26.11 25.0356 26.9998C25.7729 27.5379 26.6414 27.809 27.6286 27.809C28.1032 27.809 28.6158 27.7243 29.1497 27.5972C29.0438 27.8133 28.9336 28.0251 28.7853 28.2327C27.8574 29.5716 26.2474 30.3851 24.006 30.6605ZM35.6026 26.6523C35.5772 27.1947 35.4162 27.7031 35.0306 28.0887C34.3484 28.7708 33.2468 28.7708 32.302 28.5844C31.6241 28.453 30.8699 28.1649 30.6453 27.5082C30.4886 27.0506 30.6453 26.5549 30.7386 26.0803C30.8911 25.2965 30.8572 24.4788 30.6411 23.7119C30.5521 23.3984 30.2894 23.0255 29.9929 23.1568C29.8954 23.1992 29.8319 23.2882 29.781 23.3814C29.3149 24.2585 30.0522 25.4321 29.5649 26.2964C29.3065 26.7583 28.7641 26.9828 28.2388 27.0548C26.8617 27.237 25.4678 26.504 24.6246 25.4024C23.7815 24.3008 23.4298 22.8857 23.3874 21.5002C23.3747 21.1019 23.1925 20.5384 22.807 20.6486C22.5824 20.7121 22.5019 20.9875 22.4638 21.2206C22.2646 22.3857 22.1291 23.5848 21.6672 24.6737C21.2054 25.7626 20.3326 26.7583 19.1801 27.0167C18.0235 27.2794 16.638 26.5549 16.4812 25.3812C16.4049 24.8135 16.4346 23.9915 15.8668 23.928C15.4643 23.8856 15.1847 24.3644 15.2271 24.7627C15.2694 25.1652 15.5152 25.5084 15.6635 25.8854C16.066 26.8938 15.7016 28.1522 14.8288 28.7962C13.9517 29.436 12.6425 29.4021 11.8036 28.7157C10.7317 27.8387 10.5834 26.2286 10.9181 24.8855C11.7062 21.7205 14.6212 19.0258 17.3371 17.4115C20.2182 15.6998 23.862 15.3397 27.0355 16.3989C30.908 17.6912 33.9925 20.9706 35.3018 24.8389C35.4882 25.4067 35.628 26.0507 35.6026 26.6523Z" fill="#FEFEFE"/>
<path id="Vector_2" d="M19.5064 24.877C19.7895 24.877 20.0191 24.6134 20.0191 24.2881C20.0191 23.9628 19.7895 23.6992 19.5064 23.6992C19.2232 23.6992 18.9937 23.9628 18.9937 24.2881C18.9937 24.6134 19.2232 24.877 19.5064 24.877Z" fill="#FEFEFE"/>
<path id="Vector_3" d="M23.0781 27.3048C22.4765 27.3048 22.146 27.4023 22.146 28.0039C22.146 28.6056 22.4765 29.0928 23.0781 29.0928C23.6798 29.0928 23.934 28.6056 23.934 28.0039C23.934 27.4023 23.6798 27.3048 23.0781 27.3048Z" fill="#FEFEFE"/>
<path id="Vector_4" d="M27.332 24.6144L26.6372 24.2288L27.2261 23.9788C27.4083 23.9026 27.4973 23.6907 27.4168 23.5085C27.3405 23.3263 27.1286 23.2416 26.9465 23.3179L25.6754 23.856C25.6627 23.8602 25.6584 23.8687 25.6457 23.8771C25.6203 23.8898 25.5949 23.9068 25.5737 23.9237C25.5567 23.9407 25.544 23.9576 25.5313 23.9746C25.5228 23.9873 25.5101 23.9958 25.5017 24.0127C25.4974 24.0212 25.4974 24.0254 25.4932 24.0339C25.4805 24.0551 25.4762 24.0805 25.472 24.1017C25.4678 24.1229 25.4593 24.1441 25.4593 24.1695C25.4593 24.1907 25.4635 24.2119 25.4635 24.233C25.4678 24.2585 25.472 24.2839 25.4805 24.3093C25.4847 24.3178 25.4805 24.322 25.4847 24.3305C25.4889 24.339 25.4974 24.3432 25.5017 24.3517C25.5271 24.3983 25.561 24.4407 25.6033 24.4745C25.6118 24.483 25.6203 24.4915 25.6288 24.4957C25.633 24.5 25.6372 24.5042 25.6415 24.5042L26.9846 25.2457C27.0397 25.2753 27.099 25.2923 27.1583 25.2923C27.2854 25.2923 27.4083 25.2245 27.4718 25.1059C27.5693 24.9279 27.5057 24.7118 27.332 24.6144Z" fill="#FEFEFE"/>
</g>
<g id="Group_3">
<path id="Vector_5" d="M20.9531 37.4312V37.1939L21.6733 36.3211C21.7454 36.2363 21.775 36.1643 21.775 36.0711C21.775 35.9016 21.6733 35.7872 21.5039 35.7872C21.364 35.7872 21.2285 35.8677 21.2285 36.0753H20.9615C20.9615 35.7576 21.1861 35.5457 21.5039 35.5457C21.8259 35.5457 22.0462 35.7491 22.0462 36.0711C22.0462 36.2363 21.9869 36.3338 21.8682 36.4736L21.2835 37.1897H22.0462V37.4269H20.9531V37.4312Z" fill="#FEFEFE"/>
<path id="Vector_6" d="M22.8851 37.4481C22.5886 37.4481 22.347 37.2447 22.347 36.9143V36.0838C22.347 35.7491 22.5886 35.55 22.8851 35.55C23.1817 35.55 23.4275 35.7533 23.4275 36.0838V36.9143C23.4275 37.2447 23.1817 37.4481 22.8851 37.4481ZM23.1605 36.0923C23.1605 35.9101 23.0589 35.7872 22.8894 35.7872C22.7199 35.7872 22.6182 35.9101 22.6182 36.0923V36.9058C22.6182 37.088 22.7199 37.2108 22.8894 37.2108C23.0589 37.2108 23.1605 37.088 23.1605 36.9058V36.0923Z" fill="#FEFEFE"/>
<path id="Vector_7" d="M23.7537 37.4312V37.1939L24.474 36.3211C24.546 36.2363 24.5757 36.1643 24.5757 36.0711C24.5757 35.9016 24.474 35.7872 24.3045 35.7872C24.1647 35.7872 24.0291 35.8677 24.0291 36.0753H23.7622C23.7622 35.7576 23.9868 35.5457 24.3045 35.5457C24.6265 35.5457 24.8469 35.7491 24.8469 36.0711C24.8469 36.2363 24.7875 36.3338 24.6689 36.4736L24.0842 37.1897H24.8469V37.4269H23.7537V37.4312Z" fill="#FEFEFE"/>
<path id="Vector_8" d="M25.1519 37.4312V37.1939L25.8722 36.3211C25.9442 36.2363 25.9739 36.1643 25.9739 36.0711C25.9739 35.9016 25.8722 35.7872 25.7027 35.7872C25.5629 35.7872 25.4273 35.8677 25.4273 36.0753H25.1604C25.1604 35.7576 25.3849 35.5457 25.7027 35.5457C26.0247 35.5457 26.245 35.7491 26.245 36.0711C26.245 36.2363 26.1857 36.3338 26.0671 36.4736L25.4782 37.1939H26.2408V37.4312H25.1519Z" fill="#FEFEFE"/>
</g>
<g id="Group_4">
<path id="Vector_9" d="M14.9559 6.42088L14.528 6.66662L12.5578 4.78541L13.2188 7.42927L12.7908 7.67502L10.075 4.93371L10.5919 4.63288L12.4943 6.61578L11.8036 3.92955L12.1977 3.70075L14.1848 5.6328L13.4094 2.99742L13.9263 2.69659L14.9559 6.42088Z" fill="#FEFEFE"/>
<path id="Vector_10" d="M18.0828 5.22181L17.2735 1.56955L19.6081 1.05264L19.7182 1.54837L17.9387 1.9424L18.176 3.01012L19.6928 2.6754L19.803 3.16688L18.2861 3.5016L18.5276 4.59897L20.3072 4.20494L20.4173 4.70066L18.0828 5.22181Z" fill="#FEFEFE"/>
<path id="Vector_11" d="M23.04 4.51848L23.2095 0.785721L23.7773 0.811143L23.629 4.03547L25.4254 4.11597L25.4043 4.6244L23.04 4.51848Z" fill="#FEFEFE"/>
<path id="Vector_12" d="M28.8573 5.45485C28.4887 5.33622 28.2091 5.10318 28.0438 4.77694C27.8066 4.31511 27.9337 3.92107 28.1498 3.23469C28.3658 2.5483 28.4887 2.15426 28.9463 1.91276C29.2683 1.74328 29.6327 1.70938 30.0013 1.82802C30.658 2.03563 31.0266 2.57796 30.925 3.3279L30.3742 3.15418C30.4038 2.76862 30.2428 2.44237 29.8488 2.31527C29.6369 2.24747 29.4251 2.26866 29.2556 2.36611C29.0183 2.50169 28.9166 2.69235 28.6878 3.4084C28.4633 4.12445 28.4379 4.34053 28.5523 4.58627C28.6328 4.75999 28.798 4.89981 29.0099 4.9676C29.4039 5.09471 29.7301 4.92099 29.9293 4.58627L30.4758 4.75999C30.1326 5.43367 29.5056 5.65822 28.8573 5.45485Z" fill="#FEFEFE"/>
<path id="Vector_13" d="M34.501 7.86991C34.1451 7.94194 33.7892 7.87838 33.4587 7.65806C33.1282 7.43774 32.9333 7.14115 32.8613 6.78525C32.7596 6.27681 32.9926 5.93362 33.3867 5.33197C33.7849 4.73032 34.0095 4.38289 34.5179 4.28121C34.8738 4.20918 35.2255 4.2685 35.556 4.48882C35.8907 4.70914 36.0856 5.00996 36.1576 5.36587C36.2593 5.8743 36.0221 6.21326 35.628 6.81491C35.2297 7.41232 35.0094 7.76398 34.501 7.86991ZM35.6111 5.41247C35.5814 5.22181 35.4585 5.03538 35.2763 4.91251C35.0942 4.78964 34.8738 4.75151 34.6832 4.79811C34.4205 4.86167 34.2722 5.01844 33.8612 5.64551C33.446 6.27258 33.3612 6.46748 33.4036 6.7344C33.4333 6.92507 33.5561 7.11149 33.7383 7.23436C33.9205 7.35724 34.1408 7.39537 34.3315 7.34876C34.5942 7.28521 34.7425 7.12844 35.1535 6.50137C35.5687 5.8743 35.6534 5.6794 35.6111 5.41247Z" fill="#FEFEFE"/>
<path id="Vector_14" d="M38.3354 12.2509L40.2717 10.6705L38.3185 11.1536L38.0515 10.8273L38.9074 8.9927L36.9711 10.5731L36.611 10.1324L39.5048 7.77246L39.8649 8.2131L38.7549 10.5265L41.2335 9.8867L41.5936 10.3273L38.6998 12.6873L38.3354 12.2509Z" fill="#FEFEFE"/>
<path id="Vector_15" d="M40.0471 15.1405L43.5087 13.7339L44.4069 15.9455L43.9366 16.1362L43.2503 14.4499L42.2376 14.8609L42.8223 16.3015L42.3563 16.4921L41.7716 15.0515L40.7293 15.4752L41.4157 17.1616L40.9454 17.3522L40.0471 15.1405Z" fill="#FEFEFE"/>
<path id="Vector_16" d="M45.0171 24.5211L41.7928 24.3644L41.8182 23.7966L45.0425 23.9534L45.0934 22.9238L45.6018 22.9492L45.4747 25.5719L44.9663 25.5465L45.0171 24.5211Z" fill="#FEFEFE"/>
<path id="Vector_17" d="M40.9708 29.9614C40.8055 29.6394 40.7716 29.2792 40.8945 28.9022C41.0174 28.5208 41.2504 28.2581 41.5767 28.0929C42.0385 27.8556 42.4325 27.9912 43.1147 28.2115C43.7968 28.4319 44.1951 28.5547 44.4324 29.0166C44.5976 29.3386 44.6315 29.6945 44.5086 30.0716C44.3858 30.4529 44.1485 30.7198 43.8265 30.8851C43.3647 31.1223 42.9749 30.9825 42.2885 30.7622C41.6021 30.5419 41.2038 30.4232 40.9708 29.9614ZM43.6316 30.3724C43.8053 30.2919 43.9536 30.1224 44.0214 29.9148C44.0892 29.7072 44.068 29.4826 43.9748 29.3131C43.8434 29.0759 43.6528 28.9784 42.941 28.7454C42.2292 28.5124 42.0173 28.4827 41.7716 28.5971C41.5978 28.6776 41.4496 28.8471 41.3818 29.0547C41.314 29.2665 41.3352 29.4869 41.4284 29.6563C41.5597 29.8936 41.7504 29.9911 42.4622 30.2241C43.174 30.4571 43.3858 30.4825 43.6316 30.3724Z" fill="#FEFEFE"/>
<path id="Vector_18" d="M36.4161 36.2957L37.4668 35.2068L40.1531 37.804L39.1447 38.8505C38.6617 39.3505 38.077 39.3886 37.6236 38.9522C37.3313 38.6726 37.3016 38.2913 37.4033 38.0413C37.1194 38.1684 36.7296 38.1726 36.3907 37.8421C35.8949 37.3634 35.9585 36.7702 36.4161 36.2957ZM37.6406 37.4015L38.2592 36.7617L37.4414 35.9694L36.8228 36.6092C36.5474 36.8931 36.5686 37.2193 36.8059 37.4481C37.0432 37.6811 37.3652 37.6854 37.6406 37.4015ZM38.81 38.4607L39.3947 37.8549L38.6235 37.1091L38.0388 37.715C37.7889 37.9735 37.7507 38.2828 38.0007 38.5243C38.2507 38.77 38.56 38.7234 38.81 38.4607Z" fill="#FEFEFE"/>
<path id="Vector_19" d="M33.4926 38.7319L35.3695 41.9647L33.3061 43.1638L33.0519 42.7231L34.6281 41.8079L34.0815 40.8631L32.7384 41.6427L32.4842 41.2063L33.8273 40.4267L33.2638 39.4564L31.6876 40.3716L31.4334 39.931L33.4926 38.7319Z" fill="#FEFEFE"/>
<path id="Vector_20" d="M26.9168 41.4478L27.3532 42.1087L28.7811 41.7401L28.8446 40.9478L29.4293 40.7953L29.0395 44.7568L28.5989 44.8712L26.3364 41.5961L26.9168 41.4478ZM28.5904 44.0027L28.7387 42.2528L27.6244 42.5409L28.5904 44.0027Z" fill="#FEFEFE"/>
<path id="Vector_21" d="M21.7689 42.1596C22.057 41.8672 22.413 41.7486 22.807 41.7571C23.1968 41.7655 23.5273 41.9138 23.7815 42.1765C24.1416 42.5536 24.1289 42.9646 24.112 43.6849C24.095 44.4052 24.095 44.8204 23.7179 45.1805C23.4552 45.4305 23.1248 45.5661 22.7265 45.5576C21.9342 45.5407 21.4808 45.0111 21.3918 44.367L21.9638 44.3798C22.0486 44.7907 22.3155 45.0365 22.7392 45.0492C22.9595 45.0534 23.1629 44.9687 23.2942 44.8289C23.4807 44.634 23.5273 44.4221 23.5442 43.6722C23.5612 42.9222 23.523 42.7062 23.3408 42.5028C23.2137 42.3587 23.0146 42.2697 22.7943 42.2655C22.5485 42.2613 22.3282 42.3502 22.1799 42.5155C22.0401 42.668 21.985 42.8587 21.9765 43.1002L21.9723 43.312L22.7689 43.329L22.7604 43.812L21.3961 43.7823L21.4088 43.2104C21.4173 42.7231 21.5147 42.418 21.7689 42.1596Z" fill="#FEFEFE"/>
<path id="Vector_22" d="M18.7903 41.2952L17.7099 44.8712L17.1676 44.706L18.104 41.6173L16.3795 41.0961L16.5278 40.6089L18.7903 41.2952Z" fill="#FEFEFE"/>
<path id="Vector_23" d="M14.261 39.5411L12.2781 42.7062L10.2529 41.4435L10.524 41.0114L12.0663 41.9774L12.6467 41.0537L11.3291 40.2275L11.596 39.7996L12.9137 40.6258L13.5111 39.6725L11.9688 38.7065L12.24 38.2743L14.261 39.5411Z" fill="#FEFEFE"/>
<path id="Vector_24" d="M7.01585 32.4061L5.63461 33.2747L6.43963 34.5585L7.82511 33.6899L8.12594 34.1687L4.96093 36.1516L4.66011 35.6728L6.01169 34.8254L5.20667 33.5416L3.85508 34.389L3.55426 33.9102L6.71927 31.9273L7.01585 32.4061Z" fill="#FEFEFE"/>
<path id="Vector_25" d="M4.64312 27.3303C4.9609 27.5082 5.18545 27.7878 5.29138 28.1734C5.3973 28.559 5.3507 28.9106 5.17274 29.2242C4.91853 29.6775 4.51602 29.7835 3.82539 29.9741C3.13477 30.1648 2.73649 30.2834 2.28314 30.0292C1.96537 29.8512 1.74081 29.5758 1.63489 29.1903C1.52896 28.8047 1.57557 28.4488 1.75352 28.131C2.00774 27.6777 2.41025 27.576 3.10511 27.3853C3.79997 27.1947 4.19401 27.076 4.64312 27.3303ZM2.1984 28.4615C2.09671 28.6268 2.06705 28.8471 2.12637 29.0589C2.18569 29.2708 2.32551 29.4445 2.49922 29.5335C2.74073 29.6563 2.95258 29.6352 3.6771 29.436C4.40162 29.2326 4.59228 29.1437 4.73634 28.9106C4.83802 28.7454 4.86768 28.5251 4.80837 28.3132C4.74905 28.1014 4.60923 27.9277 4.43551 27.8387C4.19401 27.7158 3.98216 27.737 3.25764 27.9361C2.53312 28.1395 2.33822 28.2285 2.1984 28.4615Z" fill="#FEFEFE"/>
<path id="Vector_26" d="M1.34679 23.1018L4.57535 23.0509L4.58383 23.6187L1.35527 23.6695L1.37222 24.6991L0.863781 24.7033L0.821411 22.0764L1.32985 22.0679L1.34679 23.1018Z" fill="#FEFEFE"/>
<path id="Vector_27" d="M4.90162 19.5385L1.28326 18.5979L1.88491 16.2845L2.3764 16.4116L1.91881 18.1742L2.97381 18.4496L3.36361 16.9455L3.85086 17.0726L3.46106 18.5767L4.54996 18.8606L5.00755 17.098L5.49904 17.2251L4.90162 19.5385Z" fill="#FEFEFE"/>
<path id="Vector_28" d="M6.52856 14.8058L3.28729 12.9458L3.57117 12.4543L6.3718 14.0601L7.26579 12.5009L7.70644 12.7551L6.52856 14.8058Z" fill="#FEFEFE"/>
</g>
</g>
</g>
</svg>
