<svg width="32" height="24" viewBox="0 0 32 24" fill="none" xmlns="http://www.w3.org/2000/svg">
<path fill-rule="evenodd" clip-rule="evenodd" d="M2.33333 0C1.04467 0 0 1.04467 0 2.33333V21C0 22.2887 1.04467 23.3333 2.33333 23.3333H29.6667C30.9553 23.3333 32 22.2887 32 21V2.33333C32 1.04467 30.9553 0 29.6667 0H2.33333ZM2 2.33333C2 2.14924 2.14924 2 2.33333 2H29.6667C29.8508 2 30 2.14924 30 2.33333V3.46875L16.1866 12.8021C16.0738 12.8783 15.9261 12.8783 15.8133 12.8021L2 3.46881V2.33333ZM2 5.88255V21C2 21.1841 2.14924 21.3333 2.33333 21.3333H29.6667C29.8508 21.3333 30 21.1841 30 21V5.8825L17.3063 14.4593C16.517 14.9926 15.4829 14.9926 14.6936 14.4593L2 5.88255Z" fill="#8AF2BA"/>
</svg>
