<svg width="24" height="24" viewBox="0 0 24 24" fill="none" xmlns="http://www.w3.org/2000/svg">
<g id="vuesax/outline/menu">
<g id="menu">
<path id="Vector" d="M21 5.5H3C2.59 5.5 2.25 5.16 2.25 4.75C2.25 4.34 2.59 4 3 4H21C21.41 4 21.75 4.34 21.75 4.75C21.75 5.16 21.41 5.5 21 5.5Z" fill="#F0F0F0"/>
<path id="Vector_2" d="M21 12.75H3C2.59 12.75 2.25 12.41 2.25 12C2.25 11.59 2.59 11.25 3 11.25H21C21.41 11.25 21.75 11.59 21.75 12C21.75 12.41 21.41 12.75 21 12.75Z" fill="#F0F0F0"/>
<path id="Vector_3" d="M21 20H3C2.59 20 2.25 19.66 2.25 19.25C2.25 18.84 2.59 18.5 3 18.5H21C21.41 18.5 21.75 18.84 21.75 19.25C21.75 19.66 21.41 20 21 20Z" fill="#F0F0F0"/>
</g>
</g>
</svg>
